<svg width="194" height="61" viewBox="0 0 194 61" fill="none" xmlns="http://www.w3.org/2000/svg">
<path d="M32 20.4614C34.6667 22.001 34.6667 25.85 32 27.3896L14 37.7819C11.3333 39.3215 8 37.397 8 34.3178L8 13.5332C8 10.454 11.3333 8.52949 14 10.0691L32 20.4614Z" fill="url(#paint0_linear_59_712)"/>
<path d="M38.5 50.9248V32.564C38.5 31.2274 39.1676 29.9792 40.2792 29.2371L45.9898 25.4252L52.5899 21.0194C53.1457 20.6483 53.4795 20.0242 53.4795 19.3559V14.9255L49.5 15.4248L38.5 23.9248L24 31.9248V50.9248C24 52.0294 24.8954 52.9248 26 52.9248H36.5C37.6046 52.9248 38.5 52.0294 38.5 50.9248Z" fill="#D9D9D9"/>
<g filter="url(#filter0_d_59_712)">
<path d="M37.5001 12.425C45.1629 9.23217 49.5636 8.28229 51.7436 8.01275C52.7445 7.88899 53.5 8.68235 53.5 9.69089V19.0585C53.5 19.8827 52.9943 20.6225 52.2264 20.9219L24 31.925C24 31.925 25.5001 17.4251 37.5001 12.425Z" fill="#D9D9D9"/>
</g>
<path d="M62.9 37.4624V23.1624H74.88C76.36 23.1624 77.5067 23.5357 78.32 24.2824C79.1467 25.0291 79.56 26.1624 79.56 27.6824C79.56 28.9757 79.26 29.9891 78.66 30.7224C78.06 31.4557 77.2067 31.9157 76.1 32.1024L79.4 37.4624H75.76L72.7 32.2024H66.1V37.4624H62.9ZM74.5 25.7624H66.1V29.5824L74.5 29.6024C75.0867 29.6024 75.5333 29.4557 75.84 29.1624C76.16 28.8691 76.32 28.3757 76.32 27.6824C76.32 26.9757 76.16 26.4824 75.84 26.2024C75.5333 25.9091 75.0867 25.7624 74.5 25.7624ZM86.9425 37.5624C85.1558 37.5624 83.7625 37.1224 82.7625 36.2424C81.7625 35.3491 81.2625 34.0424 81.2625 32.3224C81.2625 30.5891 81.7625 29.2824 82.7625 28.4024C83.7625 27.5091 85.1558 27.0624 86.9425 27.0624H91.9425C93.1158 27.0624 94.0092 27.3424 94.6225 27.9024C95.2492 28.4491 95.5625 29.2357 95.5625 30.2624C95.5625 32.3557 94.3558 33.4024 91.9425 33.4024H84.3825C84.6625 34.6424 85.5158 35.2624 86.9425 35.2624H95.0425V37.5624H86.9425ZM86.9425 29.3624C85.5692 29.3624 84.7225 29.9424 84.4025 31.1024H91.8025C92.0692 31.1024 92.2758 31.0224 92.4225 30.8624C92.5825 30.7024 92.6625 30.4824 92.6625 30.2024C92.6625 29.6424 92.3758 29.3624 91.8025 29.3624H86.9425ZM97.3656 41.9624V27.1624H104.766C106.552 27.1624 107.946 27.6024 108.946 28.4824C109.946 29.3624 110.446 30.6357 110.446 32.3024C110.446 33.9824 109.946 35.2624 108.946 36.1424C107.946 37.0224 106.552 37.4624 104.766 37.4624H100.266V41.9624H97.3656ZM104.766 29.4624H100.266V35.1624H104.766C105.632 35.1624 106.292 34.9291 106.746 34.4624C107.212 33.9824 107.446 33.2624 107.446 32.3024C107.446 31.3557 107.212 30.6491 106.746 30.1824C106.292 29.7024 105.632 29.4624 104.766 29.4624ZM114.988 37.4624C113.908 37.4624 113.082 37.1891 112.508 36.6424C111.935 36.0957 111.648 35.3157 111.648 34.3024C111.648 33.3024 111.935 32.5291 112.508 31.9824C113.082 31.4357 113.908 31.1624 114.988 31.1624H122.668V30.6824C122.668 29.8691 122.268 29.4624 121.468 29.4624H112.988V27.1624H122.228C123.442 27.1624 124.302 27.4424 124.808 28.0024C125.315 28.5491 125.568 29.3224 125.568 30.3224V37.4624H114.988ZM115.508 35.1624H122.668V33.4624H115.508C115.255 33.4624 115.055 33.5424 114.908 33.7024C114.775 33.8491 114.708 34.0491 114.708 34.3024C114.708 34.5557 114.775 34.7624 114.908 34.9224C115.055 35.0824 115.255 35.1624 115.508 35.1624ZM127.776 37.4624V27.1624H135.656C136.816 27.1624 137.669 27.4557 138.216 28.0424C138.762 28.6157 139.036 29.3757 139.036 30.3224V32.4624H136.096V30.6824C136.096 29.8824 135.696 29.4824 134.896 29.4824H130.716V37.4624H127.776ZM143.367 37.4624C142.287 37.4624 141.461 37.1891 140.887 36.6424C140.314 36.0957 140.027 35.3157 140.027 34.3024C140.027 33.3024 140.314 32.5291 140.887 31.9824C141.461 31.4357 142.287 31.1624 143.367 31.1624H151.047V30.6824C151.047 29.8691 150.647 29.4624 149.847 29.4624H141.367V27.1624H150.607C151.821 27.1624 152.681 27.4424 153.187 28.0024C153.694 28.5491 153.947 29.3224 153.947 30.3224V37.4624H143.367ZM143.887 35.1624H151.047V33.4624H143.887C143.634 33.4624 143.434 33.5424 143.287 33.7024C143.154 33.8491 143.087 34.0491 143.087 34.3024C143.087 34.5557 143.154 34.7624 143.287 34.9224C143.434 35.0824 143.634 35.1624 143.887 35.1624ZM156.155 41.9624V27.1624H163.555C165.341 27.1624 166.735 27.6024 167.735 28.4824C168.735 29.3624 169.235 30.6357 169.235 32.3024C169.235 33.9824 168.735 35.2624 167.735 36.1424C166.735 37.0224 165.341 37.4624 163.555 37.4624H159.055V41.9624H156.155ZM163.555 29.4624H159.055V35.1624H163.555C164.421 35.1624 165.081 34.9291 165.535 34.4624C166.001 33.9824 166.235 33.2624 166.235 32.3024C166.235 31.3557 166.001 30.6491 165.535 30.1824C165.081 29.7024 164.421 29.4624 163.555 29.4624ZM171.038 41.9624V27.1624H178.438C180.224 27.1624 181.618 27.6024 182.618 28.4824C183.618 29.3624 184.118 30.6357 184.118 32.3024C184.118 33.9824 183.618 35.2624 182.618 36.1424C181.618 37.0224 180.224 37.4624 178.438 37.4624H173.938V41.9624H171.038ZM178.438 29.4624H173.938V35.1624H178.438C179.304 35.1624 179.964 34.9291 180.418 34.4624C180.884 33.9824 181.118 33.2624 181.118 32.3024C181.118 31.3557 180.884 30.6491 180.418 30.1824C179.964 29.7024 179.304 29.4624 178.438 29.4624Z" fill="white"/>
<defs>
<filter id="filter0_d_59_712" x="22" y="7.5" width="33.5" height="27.925" filterUnits="userSpaceOnUse" color-interpolation-filters="sRGB">
<feFlood flood-opacity="0" result="BackgroundImageFix"/>
<feColorMatrix in="SourceAlpha" type="matrix" values="0 0 0 0 0 0 0 0 0 0 0 0 0 0 0 0 0 0 127 0" result="hardAlpha"/>
<feOffset dy="1.5"/>
<feGaussianBlur stdDeviation="1"/>
<feComposite in2="hardAlpha" operator="out"/>
<feColorMatrix type="matrix" values="0 0 0 0 0 0 0 0 0 0 0 0 0 0 0 0 0 0 0.25 0"/>
<feBlend mode="normal" in2="BackgroundImageFix" result="effect1_dropShadow_59_712"/>
<feBlend mode="normal" in="SourceGraphic" in2="effect1_dropShadow_59_712" result="shape"/>
</filter>
<linearGradient id="paint0_linear_59_712" x1="9.2" y1="6.72549" x2="21.6" y2="37.1255" gradientUnits="userSpaceOnUse">
<stop stop-color="#FF9831"/>
<stop offset="1" stop-color="#A84000"/>
</linearGradient>
</defs>
</svg>
